<?xml version="1.0" encoding="UTF-8"?>
<svg width="512" height="512" viewBox="0 0 512 512" fill="none" xmlns="http://www.w3.org/2000/svg">
  <rect width="512" height="512" rx="256" fill="#E2E8F0"/>
  <path d="M256 256C289.137 256 316 229.137 316 196C316 162.863 289.137 136 256 136C222.863 136 196 162.863 196 196C196 229.137 222.863 256 256 256ZM326 276H318.464C299.475 284.475 278.448 289 256 289C233.552 289 212.587 284.475 193.536 276H186C144.477 276 111 309.477 111 351V371C111 388.673 125.327 403 143 403H369C386.673 403 401 388.673 401 371V351C401 309.477 367.523 276 326 276Z" fill="#94A3B8"/>
</svg>
